<svg xmlns="http://www.w3.org/2000/svg" width="128" height="128" viewBox="0 0 128 128">
  <defs>
    <linearGradient id="g" x1="0%" y1="0%" x2="100%" y2="100%">
      <stop offset="0%" stop-color="#0ea5e9" />
      <stop offset="100%" stop-color="#1d4ed8" />
    </linearGradient>
  </defs>
  <rect width="128" height="128" rx="28" fill="url(#g)" />
  <path
    d="M36 64c0-17.7 14.3-32 32-32 4.9 0 9.5 1.1 13.6 3.1l-6.4 11.5c-2.3-0.9-4.8-1.4-7.4-1.4-11.3 0-20.5 9.2-20.5 20.5s9.2 20.5 20.5 20.5c9 0 16.6-5.9 19.4-14.2h-20v-12h34.4c0.3 2 0.4 4 0.4 6 0 19.9-16.1 36-36 36s-36-16.1-36-36Z"
    fill="#f8fafc"
  />
</svg>
